<svg xmlns="http://www.w3.org/2000/svg" width="332pt" height="188pt" viewBox="0 0 332.04 188">
    <g class="graph">
        <path fill="#fff" d="M0 188V0h332.04v188z"/>
        <g class="node" transform="translate(4 184)">
            <ellipse cx="84.64" cy="-162" fill="none" stroke="#000" rx="60.56" ry="18"/>
            <text x="84.64" y="-156.95" font-family="Times,serif" font-size="14" text-anchor="middle">:feature:main</text>
        </g>
        <g class="node" transform="translate(4 184)">
            <ellipse cx="83.64" cy="-18" fill="none" stroke="#000" rx="82.06" ry="18"/>
            <text x="83.64" y="-12.95" font-family="Times,serif" font-size="14" text-anchor="middle">:core:designsystem</text>
        </g>
        <g stroke="#000" class="edge">
            <path fill="none" d="M53.74 36.96C37.2 45.56 19.04 58.37 9.64 76c-7.53 14.12-7.49 21.86 0 36 7.02 13.26 19.01 23.82 31.51 31.91"/>
            <path d="m42.63 140.72 6.8 8.12-10.38-2.11z"/>
        </g>
        <g class="node" transform="translate(4 184)">
            <ellipse cx="84.64" cy="-90" fill="none" stroke="#000" rx="70.29" ry="18"/>
            <text x="84.64" y="-84.95" font-family="Times,serif" font-size="14" text-anchor="middle">:feature:account</text>
        </g>
        <g stroke="red" stroke-width="2" class="edge">
            <path fill="none" d="M88.64 40.3v24.16"/>
            <path fill="red" d="m92.14 62.87-3.5 10-3.5-10z"/>
        </g>
        <g class="node" transform="translate(4 184)">
            <ellipse cx="248.64" cy="-90" fill="none" stroke="#000" rx="75.41" ry="18"/>
            <text x="248.64" y="-84.95" font-family="Times,serif" font-size="14" text-anchor="middle">:feature:shopping</text>
        </g>
        <g stroke="#000" class="edge">
            <path fill="none" d="M122.22 37.33c24.32 10.39 57.5 24.55 84.3 35.99"/>
            <path d="m207.61 69.98 7.82 7.14-10.57-.71z"/>
        </g>
        <g stroke="red" stroke-width="2" class="edge">
            <path fill="none" d="M88.39 112.3c-.1 7.29-.23 15.97-.35 24.16"/>
            <path fill="red" d="m91.57 134.92-3.65 9.95-3.35-10.05z"/>
        </g>
        <g stroke="#000" class="edge">
            <path fill="none" d="m216.83 110.19-82.18 34.86"/>
            <path d="m136.19 148.2-10.57.69 7.84-7.13z"/>
        </g>
        <g class="node" transform="translate(4 184)">
            <ellipse cx="248.64" cy="-18" fill="none" stroke="#000" rx="65.17" ry="18"/>
            <text x="248.64" y="-12.95" font-family="Times,serif" font-size="14" text-anchor="middle">:core:common</text>
        </g>
        <g stroke="#000" class="edge">
            <path fill="none" d="M252.64 112.3v24.16"/>
            <path d="m256.14 136.38-3.5 10-3.5-10z"/>
        </g>
    </g>
</svg>
