<svg xmlns="http://www.w3.org/2000/svg" width="1240pt" height="260pt" viewBox="0 0 1240 260">
    <g class="graph">
        <path fill="#fff" d="M0 260V0h1240v260z"/>
        <g class="node" transform="translate(4 256)">
            <ellipse cx="873.32" cy="-234" fill="none" stroke="#000" rx="27" ry="18"/>
            <text x="873.32" y="-228.95" font-family="Times,serif" font-size="14" text-anchor="middle">:app</text>
        </g>
        <g class="node" transform="translate(4 256)">
            <ellipse cx="388.32" cy="-162" fill="none" stroke="#000" rx="52.38" ry="18"/>
            <text x="388.32" y="-156.95" font-family="Times,serif" font-size="14" text-anchor="middle">:navigation</text>
        </g>
        <g stroke="red" stroke-width="2" class="edge">
            <path fill="none" d="M850.9 26.81c-75.62 10.92-294.26 42.47-399.97 57.73"/>
            <path fill="red" d="m453.23 87.75-10.4-2.04 9.4-4.89z"/>
        </g>
        <g class="node" transform="translate(4 256)">
            <ellipse cx="816.32" cy="-90" fill="none" stroke="#000" rx="65.17" ry="18"/>
            <text x="816.32" y="-84.95" font-family="Times,serif" font-size="14" text-anchor="middle">:core:common</text>
        </g>
        <g stroke="#000" class="edge">
            <path fill="none" d="M870.56 39.85c-9.64 23.99-27.42 68.31-39.04 97.25"/>
            <path d="m834.79 138.35-6.98 7.98.48-10.59z"/>
        </g>
        <g class="node" transform="translate(4 256)">
            <ellipse cx="943.32" cy="-162" fill="none" stroke="#000" rx="65.17" ry="18"/>
            <text x="943.32" y="-156.95" font-family="Times,serif" font-size="14" text-anchor="middle">:core:datastore</text>
        </g>
        <g stroke="#000" class="edge">
            <path fill="none" d="m891.82 37.5 30.88 30.88"/>
            <path d="m924.95 65.69 4.6 9.54-9.55-4.6z"/>
        </g>
        <g class="node" transform="translate(4 256)">
            <ellipse cx="388.32" cy="-18" fill="none" stroke="#000" rx="39.07" ry="18"/>
            <text x="388.32" y="-12.95" font-family="Times,serif" font-size="14" text-anchor="middle">:core:ui</text>
        </g>
        <g stroke="#000" class="edge">
            <path fill="none" d="M904.01 25.72c95.67 10.7 410.71 54.43 313.31 158.28-26.59 28.35-599.03 46.67-774.39 51.64"/>
            <path d="m443.09 239.13-10.1-3.21 9.9-3.78z"/>
        </g>
        <g stroke="#000" class="edge">
            <path fill="none" d="M343.67 101.04c-63.86 9.99-163.81 33.91-127.35 82.96 28.56 38.43 84.1 50.02 125.18 53.03"/>
            <path d="m341.64 233.53 9.79 4.06-10.18 2.93z"/>
        </g>
        <g class="node" transform="translate(4 256)">
            <ellipse cx="93.32" cy="-90" fill="none" stroke="#000" rx="72.34" ry="18"/>
            <text x="93.32" y="-84.95" font-family="Times,serif" font-size="14" text-anchor="middle">:feature:home:ui</text>
        </g>
        <g stroke="red" stroke-width="2" class="edge">
            <path fill="none" d="M350.05 105.03c-49.88 11.84-133.28 31.63-190.54 45.21"/>
            <path fill="red" d="m161.91 153.27-10.54-1.1 8.92-5.71z"/>
        </g>
        <g class="node" transform="translate(4 256)">
            <ellipse cx="295.32" cy="-90" fill="none" stroke="#000" rx="74.38" ry="18"/>
            <text x="295.32" y="-84.95" font-family="Times,serif" font-size="14" text-anchor="middle">:feature:splash:ui</text>
        </g>
        <g stroke="#000" class="edge">
            <path fill="none" d="M371.22 110.88c-12.11 9.12-27.53 20.72-40.98 30.84"/>
            <path d="m332.61 144.32-10.09 3.22 5.88-8.81z"/>
        </g>
        <g class="node" transform="translate(4 256)">
            <ellipse cx="481.32" cy="-90" fill="none" stroke="#000" rx="93.32" ry="18"/>
            <text x="481.32" y="-84.95" font-family="Times,serif" font-size="14" text-anchor="middle">:feature:onboarding:ui</text>
        </g>
        <g stroke="#000" class="edge">
            <path fill="none" d="M413.42 110.88c12.02 9.05 27.3 20.55 40.69 30.63"/>
            <path d="m455.91 138.48 5.88 8.81-10.09-3.21z"/>
        </g>
        <g class="node" transform="translate(4 256)">
            <ellipse cx="663.32" cy="-90" fill="none" stroke="#000" rx="70.29" ry="18"/>
            <text x="663.32" y="-84.95" font-family="Times,serif" font-size="14" text-anchor="middle">:feature:login:ui</text>
        </g>
        <g stroke="#000" class="edge">
            <path fill="none" d="M433.49 105.48c46.3 11.79 121.89 31.03 174.55 44.43"/>
            <path d="m608.61 146.44 8.83 5.86-10.55.93z"/>
        </g>
        <g stroke="#000" class="edge">
            <path fill="none" d="M919.13 110.54c-17.92 9.87-41.34 22.79-60.89 33.56"/>
            <path d="m860.2 147.02-10.45 1.76 7.07-7.89z"/>
        </g>
        <g class="node" transform="translate(4 256)">
            <ellipse cx="1116.32" cy="-90" fill="none" stroke="#000" rx="87.69" ry="18"/>
            <text x="1116.32" y="-84.95" font-family="Times,serif" font-size="14" text-anchor="middle">:core:datastore-proto</text>
        </g>
        <g stroke="#000" class="edge">
            <path fill="none" d="M982.75 109.33c25.59 10.36 60.48 24.48 88.72 35.9"/>
            <path d="m1072.58 141.91 7.95 6.99-10.58-.51z"/>
        </g>
        <g class="node" transform="translate(4 256)">
            <ellipse cx="955.32" cy="-90" fill="none" stroke="#000" rx="55.45" ry="18"/>
            <text x="955.32" y="-84.95" font-family="Times,serif" font-size="14" text-anchor="middle">:core:model</text>
        </g>
        <g stroke="#000" class="edge">
            <path fill="none" d="M950.29 112.3c1.26 7.38 2.77 16.18 4.19 24.45"/>
            <path d="m957.89 135.96-1.76 10.44-5.14-9.26z"/>
        </g>
        <g stroke="red" stroke-width="2" class="edge">
            <path fill="none" d="m148.37 179.11 198.76 47.17"/>
            <path fill="red" d="m346.13 222.44 8.92 5.72-10.53 1.09z"/>
        </g>
        <g class="node" transform="translate(4 256)">
            <ellipse cx="93.32" cy="-18" fill="none" stroke="#000" rx="93.32" ry="18"/>
            <text x="93.32" y="-12.95" font-family="Times,serif" font-size="14" text-anchor="middle">:feature:home:domain</text>
        </g>
        <g stroke="#000" class="edge">
            <path fill="none" d="M97.32 184.3v24.16"/>
            <path d="m100.82 208.38-3.5 10-3.5-10z"/>
        </g>
        <g stroke="#000" class="edge">
            <path fill="none" d="M321.36 183.59c12.66 9.53 28.69 21.6 42.32 31.85"/>
            <path d="m365.56 212.48 5.88 8.81-10.09-3.22z"/>
        </g>
        <g stroke="#000" class="edge">
            <path fill="none" d="M462.81 183.95c-12.58 9.46-28.39 21.36-41.84 31.49"/>
            <path d="m423.4 217.98-10.09 3.22 5.88-8.81z"/>
        </g>
        <g stroke="#000" class="edge">
            <path fill="none" d="M618.79 179.35c-51.36 13.08-131.73 33.53-181.64 46.24"/>
            <path d="m438.09 228.96-10.55-.93 8.83-5.85z"/>
        </g>
    </g>
</svg>
