<svg xmlns="http://www.w3.org/2000/svg" width="1092" height="476pt" viewBox="0 0 818.83 476">
    <g class="graph">
        <path fill="#fff" d="M0 476V0h818.83v476z"/>
        <g class="node" transform="translate(4 472)">
            <ellipse cx="345.66" cy="-450" fill="none" stroke="#000" rx="27" ry="18"/>
            <text x="345.66" y="-444.95" font-family="Times,serif" font-size="14" text-anchor="middle">:app</text>
        </g>
        <g class="node" transform="translate(4 472)">
            <ellipse cx="477.66" cy="-306" fill="none" stroke="#000" rx="57.49" ry="18"/>
            <text x="477.66" y="-300.95" font-family="Times,serif" font-size="14" text-anchor="middle">:feature:auth</text>
        </g>
        <g stroke="#000" class="edge">
            <path fill="none" d="M368.78 35.06c14.86 9.91 35.46 24.89 50.88 40.94 18.28 19.02 35.11 43.86 46.61 62.47"/>
            <path d="m469.13 136.43 2.18 10.37-8.17-6.75z"/>
        </g>
        <g class="node" transform="translate(4 472)">
            <ellipse cx="64.66" cy="-306" fill="none" stroke="#000" rx="64.66" ry="18"/>
            <text x="64.66" y="-300.95" font-family="Times,serif" font-size="14" text-anchor="middle">:feature:splash</text>
        </g>
        <g stroke="#000" class="edge">
            <path fill="none" d="M322.39 23.65C256.13 25.85 89.59 35.41 55.66 76c-14.13 16.9-8.74 42.21-1.05 61.52"/>
            <path d="m57.71 135.87.82 10.56-7.23-7.74z"/>
        </g>
        <g class="node" transform="translate(4 472)">
            <ellipse cx="144.66" cy="-378" fill="none" stroke="#000" rx="83.6" ry="18"/>
            <text x="144.66" y="-372.95" font-family="Times,serif" font-size="14" text-anchor="middle">:feature:onboarding</text>
        </g>
        <g stroke="#000" class="edge">
            <path fill="none" d="M326.21 31.17c-30.26 10.54-83.81 29.19-124.22 43.26"/>
            <path d="m203.27 77.69-10.6-.02 8.29-6.59z"/>
        </g>
        <g class="node" transform="translate(4 472)">
            <ellipse cx="345.66" cy="-378" fill="none" stroke="#000" rx="60.56" ry="18"/>
            <text x="345.66" y="-372.95" font-family="Times,serif" font-size="14" text-anchor="middle">:feature:main</text>
        </g>
        <g stroke="red" stroke-width="2" class="edge">
            <path fill="none" d="M349.66 40.3v24.16"/>
            <path fill="red" d="m353.16 62.87-3.5 10-3.5-10z"/>
        </g>
        <g class="node" transform="translate(4 472)">
            <ellipse cx="233.66" cy="-234" fill="none" stroke="#000" rx="82.06" ry="18"/>
            <text x="233.66" y="-228.95" font-family="Times,serif" font-size="14" text-anchor="middle">:core:designsystem</text>
        </g>
        <g stroke="#000" class="edge">
            <path fill="none" d="M330.17 34.72c-15.06 9.73-35.75 24.63-50.51 41.28-24.58 27.72-32.33 36.24-42 72-5.31 19.63-5.16 42.61-3.76 60.29"/>
            <path d="m237.37 207.79-2.5 10.29-4.47-9.61z"/>
        </g>
        <g class="node" transform="translate(4 472)">
            <ellipse cx="745.66" cy="-18" fill="none" stroke="#000" rx="65.17" ry="18"/>
            <text x="745.66" y="-12.95" font-family="Times,serif" font-size="14" text-anchor="middle">:core:common</text>
        </g>
        <g stroke="#000" class="edge">
            <path fill="none" d="M376.49 25.35C475.1 34.7 811.66 73.33 811.66 165v146c0 43.36-24.59 88.42-42.79 115.84"/>
            <path d="m771.91 428.6-8.55 6.27 2.77-10.23z"/>
        </g>
        <g class="node" transform="translate(4 472)">
            <ellipse cx="548.66" cy="-90" fill="none" stroke="#000" rx="65.17" ry="18"/>
            <text x="548.66" y="-84.95" font-family="Times,serif" font-size="14" text-anchor="middle">:core:datastore</text>
        </g>
        <g stroke="#000" class="edge">
            <path fill="none" d="M376.95 22.54c70.54.48 259 12.71 339.71 125.46 62.53 87.35-91.09 24.02-140 72-35.07 34.4-33.58 96.33-29.01 132.53"/>
            <path d="m551.09 351.85-2.04 10.4-4.89-9.4z"/>
        </g>
        <g stroke="#000" class="edge">
            <path fill="none" d="M440.27 178.87c-39.36 11.3-98.98 28.4-143.36 41.13"/>
            <path d="m298 223.33-10.58-.61 8.65-6.12z"/>
        </g>
        <g class="node" transform="translate(4 472)">
            <ellipse cx="628.66" cy="-234" fill="none" stroke="#000" rx="47.26" ry="18"/>
            <text x="628.66" y="-228.95" font-family="Times,serif" font-size="14" text-anchor="middle">:core:data</text>
        </g>
        <g stroke="#000" class="edge">
            <path fill="none" d="M512.95 181.5c23.28 10.8 55.22 25.6 80.25 37.21"/>
            <path d="m594.49 215.45 7.6 7.38-10.55-1.03z"/>
        </g>
        <g stroke="#000" class="edge">
            <path fill="none" d="M103.68 181.5c24.92 10.33 58.71 24.32 86.12 35.68"/>
            <path d="m191.04 213.9 7.9 7.06-10.57-.59z"/>
        </g>
        <g stroke="#000" class="edge">
            <path fill="none" d="M79.23 183.95c13.34 20.04 38.12 53.06 67.43 72.05 105.92 68.63 251.66 101.36 336.65 115.52"/>
            <path d="m483.83 368.06 9.31 5.06-10.43 1.85z"/>
        </g>
        <g class="node" transform="translate(4 472)">
            <ellipse cx="413.66" cy="-18" fill="none" stroke="#000" rx="55.45" ry="18"/>
            <text x="413.66" y="-12.95" font-family="Times,serif" font-size="14" text-anchor="middle">:core:model</text>
        </g>
        <g stroke="#000" class="edge">
            <path fill="none" d="M72.13 184.35c4.55 19.22 14.09 50.31 31.53 71.65 73.82 90.35 200.57 151.54 268.25 179.55"/>
            <path d="m372.91 432.17 7.94 7.02-10.58-.53z"/>
        </g>
        <g stroke="#000" class="edge">
            <path fill="none" d="M153.69 112.36c5.89 18.67 16.82 48.76 31.97 71.64 6.67 10.08 15.43 19.88 23.85 28.26"/>
            <path d="m211.83 209.63 4.81 9.45-9.65-4.39z"/>
        </g>
        <g stroke="#000" class="edge">
            <path fill="none" d="M311.36 108.11c-19.21 8.49-41.21 21.44-54.7 39.89-12.7 17.36-17.27 41.44-18.76 60.17"/>
            <path d="m241.4 208.27-4.01 9.8-2.98-10.17z"/>
        </g>
        <g class="node" transform="translate(4 472)">
            <ellipse cx="331.66" cy="-306" fill="none" stroke="#000" rx="70.29" ry="18"/>
            <text x="331.66" y="-300.95" font-family="Times,serif" font-size="14" text-anchor="middle">:feature:account</text>
        </g>
        <g stroke="#000" class="edge">
            <path fill="none" d="M346.2 112.3c-1.48 7.38-3.24 16.18-4.89 24.45"/>
            <path d="m344.77 137.29-5.39 9.12-1.47-10.49z"/>
        </g>
        <g class="node" transform="translate(4 472)">
            <ellipse cx="628.66" cy="-306" fill="none" stroke="#000" rx="75.41" ry="18"/>
            <text x="628.66" y="-300.95" font-family="Times,serif" font-size="14" text-anchor="middle">:feature:shopping</text>
        </g>
        <g stroke="red" stroke-width="2" class="edge">
            <path fill="none" d="M395.13 106.25c47.55 11.76 122.5 30.3 175.48 43.4"/>
            <path fill="red" d="m569.75 145.83 8.87 5.8-10.55 1z"/>
        </g>
        <g stroke="#000" class="edge">
            <path fill="none" d="M591.58 396.83c31.16 11.07 75.07 26.68 108.71 38.63"/>
            <path d="m701.14 432.05 8.25 6.64-10.59-.05z"/>
        </g>
        <g class="node" transform="translate(4 472)">
            <ellipse cx="574.66" cy="-18" fill="none" stroke="#000" rx="87.69" ry="18"/>
            <text x="574.66" y="-12.95" font-family="Times,serif" font-size="14" text-anchor="middle">:core:datastore-proto</text>
        </g>
        <g stroke="red" stroke-width="2" class="edge">
            <path fill="none" d="M559.09 400.3c2.8 7.55 6.15 16.58 9.29 25.02"/>
            <path fill="red" d="m571.05 422.47.2 10.59-6.76-8.16z"/>
        </g>
        <g stroke="#000" class="edge">
            <path fill="none" d="M523.03 398.36c-19.61 10.17-45.52 23.61-66.75 34.61"/>
            <path d="m458.12 435.96-10.49 1.5 7.27-7.71z"/>
        </g>
        <g stroke="#000" class="edge">
            <path fill="none" d="M664.41 251.48c18.04 8.7 39.5 22.08 52.25 40.52 27.73 40.1 33.14 98.38 33.68 132.72"/>
            <path d="m753.84 424.28-3.49 10.01-3.51-10z"/>
        </g>
        <g stroke="#000" class="edge">
            <path fill="none" d="M610.35 254.24c-12.27 9.5-26.77 22.75-35.69 37.76-10.96 18.43-16.48 42.11-19.24 60.41"/>
            <path d="m558.89 352.85-4.76 9.46-2.18-10.36z"/>
        </g>
        <g class="node" transform="translate(4 472)">
            <ellipse cx="641.66" cy="-162" fill="none" stroke="#000" rx="62.1" ry="18"/>
            <text x="641.66" y="-156.95" font-family="Times,serif" font-size="14" text-anchor="middle">:core:network</text>
        </g>
        <g stroke="red" stroke-width="2" class="edge">
            <path fill="none" d="M635.87 256.3c1.37 7.38 3.01 16.18 4.54 24.45"/>
            <path fill="red" d="m643.54 278.45-1.61 10.47-5.27-9.19z"/>
        </g>
        <g stroke="#000" class="edge">
            <path fill="none" d="M658 327.85c17.98 24.55 51.54 70.38 72.68 99.24"/>
            <path d="m733.36 424.82 3.08 10.13-8.73-6z"/>
        </g>
        <g stroke="red" stroke-width="2" class="edge">
            <path fill="none" d="M624.09 327.24c-12.12 9.12-27.45 20.66-40.8 30.7"/>
            <path fill="red" d="m586.95 359.57-10.1 3.22 5.89-8.81z"/>
        </g>
        <g stroke="#000" class="edge">
            <path fill="none" d="M647 328.2c.56 19.97-1.78 52.61-20.34 71.8-46.17 47.72-80.69 19.48-145 36-3.73.96-7.59 1.96-11.46 2.97"/>
            <path d="m471.31 442.3-10.56-.85 8.79-5.92z"/>
        </g>
        <g stroke="#000" class="edge">
            <path fill="none" d="M312.93 183.24c-12.68 9.05-28.69 20.49-42.69 30.48"/>
            <path d="m272.35 216.52-10.17 2.97 6.1-8.66z"/>
        </g>
        <g stroke="#000" class="edge">
            <path fill="none" d="M576.92 178.38c-9.74 1.92-19.79 3.86-29.26 5.62-79.89 14.82-171.66 30.32-234.49 40.7"/>
            <path d="m314.1 228.09-10.44-1.82 9.3-5.08z"/>
        </g>
        <g stroke="#000" class="edge">
            <path fill="none" d="M652.42 183.82c24.62 22.15 66.03 63.54 87.24 108.18 20.95 44.09 24.54 59.4 20 108-.76 8.14-2.17 16.9-3.69 24.9"/>
            <path d="m759.45 425.35-5.43 9.1-1.43-10.5z"/>
        </g>
        <g stroke="red" stroke-width="2" class="edge">
            <path fill="none" d="M632.66 184.3v24.16"/>
            <path fill="red" d="m636.16 206.87-3.5 10-3.5-10z"/>
        </g>
        <g stroke="#000" class="edge">
            <path fill="none" d="M584.5 180.29c-22.68 8.31-48.67 21.05-66.84 39.71-57.62 59.16-84.49 156.74-94.74 204.66"/>
            <path d="m426.4 425.14-5.43 9.1-1.43-10.5z"/>
        </g>
    </g>
</svg>
