<svg xmlns="http://www.w3.org/2000/svg" width="625pt" height="260pt" viewBox="0 0 624.51 260">
    <g class="graph">
        <path fill="#fff" d="M0 260V0h624.51v260z"/>
        <g class="node" transform="translate(4 256)">
            <ellipse cx="229.07" cy="-234" fill="none" stroke="#000" rx="82.57" ry="18"/>
            <text x="229.07" y="-228.95" font-family="Times,serif" font-size="14" text-anchor="middle">:feature:splash:data</text>
        </g>
        <g class="node" transform="translate(4 256)">
            <ellipse cx="39.07" cy="-162" fill="none" stroke="#000" rx="39.07" ry="18"/>
            <text x="39.07" y="-156.95" font-family="Times,serif" font-size="14" text-anchor="middle">:core:ui</text>
        </g>
        <g stroke="#000" class="edge">
            <path fill="none" d="M192.31 38.02c-32.09 11.82-76.6 28.22-108.65 40.02"/>
            <path d="m84.9 81.32-10.59.17 8.17-6.74z"/>
        </g>
        <g class="node" transform="translate(4 256)">
            <ellipse cx="229.07" cy="-18" fill="none" stroke="#000" rx="65.17" ry="18"/>
            <text x="229.07" y="-12.95" font-family="Times,serif" font-size="14" text-anchor="middle">:core:common</text>
        </g>
        <g stroke="#000" class="edge">
            <path fill="none" d="M208.35 39.52c-40.18 28.99-112.05 91-79.28 144.48 10.44 17.04 28.28 28.82 46.26 36.86"/>
            <path d="m176.55 217.58 7.93 7.02-10.58-.54z"/>
        </g>
        <g class="node" transform="translate(4 256)">
            <ellipse cx="229.07" cy="-90" fill="none" stroke="#000" rx="95.37" ry="18"/>
            <text x="229.07" y="-84.95" font-family="Times,serif" font-size="14" text-anchor="middle">:feature:splash:domain</text>
        </g>
        <g stroke="#000" class="edge">
            <path fill="none" d="M233.07 40.41v96.17"/>
            <path d="m236.57 136.38-3.5 10-3.5-10z"/>
        </g>
        <g class="node" transform="translate(4 256)">
            <ellipse cx="423.07" cy="-162" fill="none" stroke="#000" rx="62.1" ry="18"/>
            <text x="423.07" y="-156.95" font-family="Times,serif" font-size="14" text-anchor="middle">:core:network</text>
        </g>
        <g stroke="red" stroke-width="2" class="edge">
            <path fill="none" d="M274.21 37.85c30.58 11.03 72.39 26.12 104.56 37.72"/>
            <path fill="red" d="m378.21 71.65 8.22 6.69-10.6-.11z"/>
        </g>
        <g class="node" transform="translate(4 256)">
            <ellipse cx="445.07" cy="-90" fill="none" stroke="#000" rx="65.17" ry="18"/>
            <text x="445.07" y="-84.95" font-family="Times,serif" font-size="14" text-anchor="middle">:core:datastore</text>
        </g>
        <g stroke="#000" class="edge">
            <path fill="none" d="M254.78 39.82c24.2 18.47 64.72 48.63 101.29 72.18 17.34 11.17 37.12 22.61 53.97 31.99"/>
            <path d="m411.71 140.92 7.06 7.9-10.44-1.77z"/>
        </g>
        <g stroke="#000" class="edge">
            <path fill="none" d="M233.07 184.3v24.16"/>
            <path d="m236.57 208.38-3.5 10-3.5-10z"/>
        </g>
        <g stroke="#000" class="edge">
            <path fill="none" d="M410.89 111.54c-23.65 24.09-65.72 66.61-73.82 72.46-18.16 13.12-40.03 24.79-59.01 33.81"/>
            <path d="m279.77 220.88-10.55 1.03 7.6-7.38z"/>
        </g>
        <g stroke="red" stroke-width="2" class="edge">
            <path fill="none" d="M432.51 112.3c2.34 7.46 5.14 16.38 7.77 24.73"/>
            <path fill="red" d="m443.13 134.42-.35 10.59-6.33-8.49z"/>
        </g>
        <g class="node" transform="translate(4 256)">
            <ellipse cx="561.07" cy="-18" fill="none" stroke="#000" rx="55.45" ry="18"/>
            <text x="561.07" y="-12.95" font-family="Times,serif" font-size="14" text-anchor="middle">:core:model</text>
        </g>
        <g stroke="#000" class="edge">
            <path fill="none" d="M463.96 108.8c19.55 8.8 42.82 21.85 59.11 39.2 16.24 17.31 27.23 42.05 33.87 61.05"/>
            <path d="m560.19 207.72-.21 10.59-6.44-8.41z"/>
        </g>
        <g stroke="#000" class="edge">
            <path fill="none" d="M407.93 180.33c-34.98 11.34-85.39 27.67-123.11 39.9"/>
            <path d="m286.08 223.5-10.59-.25 8.43-6.41z"/>
        </g>
        <g stroke="#000" class="edge">
            <path fill="none" d="M475.39 182.88c16.24 9.81 37.27 22.49 54.88 33.12"/>
            <path d="m531.6 212.71 6.75 8.17-10.37-2.17z"/>
        </g>
        <g class="node" transform="translate(4 256)">
            <ellipse cx="400.07" cy="-18" fill="none" stroke="#000" rx="87.69" ry="18"/>
            <text x="400.07" y="-12.95" font-family="Times,serif" font-size="14" text-anchor="middle">:core:datastore-proto</text>
        </g>
        <g stroke="red" stroke-width="2" class="edge">
            <path fill="none" d="M438.17 183.95c-5.06 7.87-11.21 17.43-16.88 26.26"/>
            <path fill="red" d="m425.16 210.66-8.35 6.52 2.46-10.31z"/>
        </g>
    </g>
</svg>
