<svg xmlns="http://www.w3.org/2000/svg" width="725pt" height="188pt" viewBox="0 0 725.43 188">
    <g class="graph">
        <path fill="#fff" d="M0 188V0h725.43v188z"/>
        <g class="node" transform="translate(4 184)">
            <ellipse cx="281.11" cy="-162" fill="none" stroke="#000" rx="52.38" ry="18"/>
            <text x="281.11" y="-156.95" font-family="Times,serif" font-size="14" text-anchor="middle">:navigation</text>
        </g>
        <g class="node" transform="translate(4 184)">
            <ellipse cx="281.11" cy="-18" fill="none" stroke="#000" rx="39.07" ry="18"/>
            <text x="281.11" y="-12.95" font-family="Times,serif" font-size="14" text-anchor="middle">:core:ui</text>
        </g>
        <g stroke="#000" class="edge">
            <path fill="none" d="M233.5 25.61C163.23 30.36 43.09 43.19 16.11 76c-60.52 73.61 124.58 86.78 218.23 88.83"/>
            <path d="m234.38 161.33 9.94 3.68-10.06 3.32z"/>
        </g>
        <g class="node" transform="translate(4 184)">
            <ellipse cx="624.11" cy="-90" fill="none" stroke="#000" rx="72.34" ry="18"/>
            <text x="624.11" y="-84.95" font-family="Times,serif" font-size="14" text-anchor="middle">:feature:home:ui</text>
        </g>
        <g stroke="red" stroke-width="2" class="edge">
            <path fill="none" d="M329.46 31.95C381.4 42.44 470.02 60.39 546.11 76c5.47 1.12 11.14 2.29 16.83 3.46"/>
            <path fill="red" d="m561.82 75.66 9.08 5.45-10.5 1.4z"/>
        </g>
        <g class="node" transform="translate(4 184)">
            <ellipse cx="95.11" cy="-90" fill="none" stroke="#000" rx="74.38" ry="18"/>
            <text x="95.11" y="-84.95" font-family="Times,serif" font-size="14" text-anchor="middle">:feature:splash:ui</text>
        </g>
        <g stroke="#000" class="edge">
            <path fill="none" d="M250.56 36c-28.6 10.77-69.6 26.2-101.73 38.29"/>
            <path d="m150.31 77.47-10.59.25 8.13-6.8z"/>
        </g>
        <g class="node" transform="translate(4 184)">
            <ellipse cx="281.11" cy="-90" fill="none" stroke="#000" rx="93.32" ry="18"/>
            <text x="281.11" y="-84.95" font-family="Times,serif" font-size="14" text-anchor="middle">:feature:onboarding:ui</text>
        </g>
        <g stroke="#000" class="edge">
            <path fill="none" d="M285.11 40.3v24.16"/>
            <path d="m288.61 64.38-3.5 10-3.5-10z"/>
        </g>
        <g class="node" transform="translate(4 184)">
            <ellipse cx="463.11" cy="-90" fill="none" stroke="#000" rx="70.29" ry="18"/>
            <text x="463.11" y="-84.95" font-family="Times,serif" font-size="14" text-anchor="middle">:feature:login:ui</text>
        </g>
        <g stroke="#000" class="edge">
            <path fill="none" d="M318.92 36c28.05 10.79 68.28 26.27 99.75 38.37"/>
            <path d="m419.92 71.1 8.07 6.85-10.59-.32z"/>
        </g>
        <g stroke="red" stroke-width="2" class="edge">
            <path fill="none" d="M573.87 106.28c-9.26 1.91-18.78 3.88-27.76 5.72-74.95 15.38-162.06 33.02-214.29 43.58"/>
            <path fill="red" d="m334.05 158.7-10.5-1.45 9.11-5.42z"/>
        </g>
        <g class="node" transform="translate(4 184)">
            <ellipse cx="624.11" cy="-18" fill="none" stroke="#000" rx="93.32" ry="18"/>
            <text x="624.11" y="-12.95" font-family="Times,serif" font-size="14" text-anchor="middle">:feature:home:domain</text>
        </g>
        <g stroke="#000" class="edge">
            <path fill="none" d="M628.11 112.3v24.16"/>
            <path d="m631.61 136.38-3.5 10-3.5-10z"/>
        </g>
        <g stroke="#000" class="edge">
            <path fill="none" d="M138.11 109.67c31.35 11.8 75.23 28.32 106.88 40.23"/>
            <path d="m246.09 146.57 8.12 6.8-10.59-.25z"/>
        </g>
        <g stroke="#000" class="edge">
            <path fill="none" d="M285.11 112.3v24.16"/>
            <path d="m288.61 136.38-3.5 10-3.5-10z"/>
        </g>
        <g stroke="#000" class="edge">
            <path fill="none" d="M429.4 109.5c-30.55 11.75-73.47 28.26-104.55 40.22"/>
            <path d="m326.4 152.87-10.59.33 8.07-6.86z"/>
        </g>
    </g>
</svg>
