<svg xmlns="http://www.w3.org/2000/svg" width="1354pt" height="332pt" viewBox="0 0 1353.59 332">
    <g class="graph">
        <path fill="#fff" d="M0 332V0h1353.59v332z"/>
        <g class="node" transform="translate(4 328)">
            <ellipse cx="591.32" cy="-306" fill="none" stroke="#000" rx="52.38" ry="18"/>
            <text x="591.32" y="-300.95" font-family="Times,serif" font-size="14" text-anchor="middle">:navigation</text>
        </g>
        <g class="node" transform="translate(4 328)">
            <ellipse cx="457.32" cy="-90" fill="none" stroke="#000" rx="39.07" ry="18"/>
            <text x="457.32" y="-84.95" font-family="Times,serif" font-size="14" text-anchor="middle">:core:ui</text>
        </g>
        <g stroke="#000" class="edge">
            <path fill="none" d="M542.62 22.28c-93.8-.03-283.77 5.96-325.3 53.72-22.87 26.3 17.46 100.57 26 108 58.24 50.72 95.66 15.06 170 36 2.55.72 5.16 1.5 7.78 2.32"/>
            <path d="m421.98 218.93 8.4 6.46-10.6.18z"/>
        </g>
        <g class="node" transform="translate(4 328)">
            <ellipse cx="817.32" cy="-90" fill="none" stroke="#000" rx="65.17" ry="18"/>
            <text x="817.32" y="-84.95" font-family="Times,serif" font-size="14" text-anchor="middle">:core:common</text>
        </g>
        <g stroke="#000" class="edge">
            <path fill="none" d="M647.58 24.16C714.01 27.24 831.15 38.14 923.32 76c50.99 20.95 75.75 22.99 101 72 28.38 55.09-59.27 76.09-128.21 84.09"/>
            <path d="m896.62 235.55-10.32-2.41 9.57-4.55z"/>
        </g>
        <g class="node" transform="translate(4 328)">
            <ellipse cx="93.32" cy="-162" fill="none" stroke="#000" rx="72.34" ry="18"/>
            <text x="93.32" y="-156.95" font-family="Times,serif" font-size="14" text-anchor="middle">:feature:home:ui</text>
        </g>
        <g stroke="#000" class="edge">
            <path fill="none" d="M543.67 25.4C447.58 30.55 245.44 44.82 183.32 76c-28.51 14.31-52.88 41.96-68.32 62.67"/>
            <path d="m117.92 140.6-8.68 6.07 3-10.16z"/>
        </g>
        <g class="node" transform="translate(4 328)">
            <ellipse cx="836.32" cy="-234" fill="none" stroke="#000" rx="74.38" ry="18"/>
            <text x="836.32" y="-228.95" font-family="Times,serif" font-size="14" text-anchor="middle">:feature:splash:ui</text>
        </g>
        <g stroke="#000" class="edge">
            <path fill="none" d="M634.68 34.25c39.99 11.42 102.36 29.24 147.93 42.26"/>
            <path d="m783.41 73.1 8.65 6.11-10.58.62z"/>
        </g>
        <g class="node" transform="translate(4 328)">
            <ellipse cx="578.32" cy="-162" fill="none" stroke="#000" rx="93.32" ry="18"/>
            <text x="578.32" y="-156.95" font-family="Times,serif" font-size="14" text-anchor="middle">:feature:onboarding:ui</text>
        </g>
        <g stroke="#000" class="edge">
            <path fill="none" d="M606.73 39.82c10.72 17.97 23.95 47.22 15.59 72.18-3.26 9.74-9.1 19.12-15.33 27.22"/>
            <path d="m609.69 141.45-9.09 5.45 3.7-9.92z"/>
        </g>
        <g class="node" transform="translate(4 328)">
            <ellipse cx="1195.32" cy="-234" fill="none" stroke="#000" rx="70.29" ry="18"/>
            <text x="1195.32" y="-228.95" font-family="Times,serif" font-size="14" text-anchor="middle">:feature:login:ui</text>
        </g>
        <g stroke="#000" class="edge">
            <path fill="none" d="M646.46 26.54c93.45 6.84 297.95 23.52 468.86 49.46 6.76 1.03 13.79 2.23 20.79 3.52"/>
            <path d="m1136.38 76 9.17 5.31-10.48 1.57z"/>
        </g>
        <g class="node" transform="translate(4 328)">
            <ellipse cx="545.32" cy="-234" fill="none" stroke="#000" rx="64.15" ry="18"/>
            <text x="545.32" y="-228.95" font-family="Times,serif" font-size="14" text-anchor="middle">:feature:pos:ui</text>
        </g>
        <g stroke="red" stroke-width="2" class="edge">
            <path fill="none" d="M584.18 39.95c-5.25 7.99-11.64 17.72-17.51 26.65"/>
            <path fill="red" d="m570.43 67.25-8.42 6.43 2.57-10.28z"/>
        </g>
        <g class="node" transform="translate(4 328)">
            <ellipse cx="342.32" cy="-234" fill="none" stroke="#000" rx="120.45" ry="18"/>
            <text x="342.32" y="-228.95" font-family="Times,serif" font-size="14" text-anchor="middle">:feature:transaction-history:ui</text>
        </g>
        <g stroke="#000" class="edge">
            <path fill="none" d="M555.59 34.17c-38.56 10.84-97.78 27.49-143.4 40.31"/>
            <path d="m413.24 77.82-10.58-.66 8.68-6.07z"/>
        </g>
        <g stroke="#000" class="edge">
            <path fill="none" d="M151.85 178.12c10.43 2.03 21.28 4.08 31.47 5.88 101.88 18.04 129.69 10.62 230 36 2.6.66 5.26 1.4 7.93 2.2"/>
            <path d="m422.25 218.84 8.45 6.39-10.59.27z"/>
        </g>
        <g stroke="#000" class="edge">
            <path fill="none" d="M162.23 174.24c28.27 3.1 61.81 6.71 92.09 9.76 177.48 17.9 386.43 36.9 494.33 46.55"/>
            <path d="m748.88 227.06 9.65 4.37-10.27 2.6z"/>
        </g>
        <g class="node" transform="translate(4 328)">
            <ellipse cx="93.32" cy="-90" fill="none" stroke="#000" rx="93.32" ry="18"/>
            <text x="93.32" y="-84.95" font-family="Times,serif" font-size="14" text-anchor="middle">:feature:home:domain</text>
        </g>
        <g stroke="#000" class="edge">
            <path fill="none" d="M97.32 184.3v24.16"/>
            <path d="m100.82 208.38-3.5 10-3.5-10z"/>
        </g>
        <g stroke="#000" class="edge">
            <path fill="none" d="M816.55 111.45c-29.69 19.84-82.63 52.98-132.23 72.55-58.18 22.96-128.98 37.71-174.98 45.67"/>
            <path d="m510.14 233.08-10.44-1.78 9.28-5.12z"/>
        </g>
        <g stroke="#000" class="edge">
            <path fill="none" d="M901.46 104.57c59.7 12.05 137.19 36.54 104.86 79.43-14.48 19.2-71.17 33.57-118.03 42.47"/>
            <path d="m889.2 229.86-10.47-1.63 9.2-5.26z"/>
        </g>
        <g class="node" transform="translate(4 328)">
            <ellipse cx="898.32" cy="-162" fill="none" stroke="#000" rx="95.37" ry="18"/>
            <text x="898.32" y="-156.95" font-family="Times,serif" font-size="14" text-anchor="middle">:feature:splash:domain</text>
        </g>
        <g stroke="#000" class="edge">
            <path fill="none" d="M855.33 111.95c7.39 8.34 16.44 18.56 24.62 27.8"/>
            <path d="m882.44 137.27 4.01 9.81-9.25-5.17z"/>
        </g>
        <g stroke="#000" class="edge">
            <path fill="none" d="M553.64 183.59c-17.69 10.23-40.45 23.4-58.95 34.1"/>
            <path d="m496.63 220.61-10.41 1.98 6.91-8.03z"/>
        </g>
        <g stroke="#000" class="edge">
            <path fill="none" d="M632.13 181.59c39.39 11.54 94.31 27.62 134.83 39.49"/>
            <path d="m767.92 217.71 8.61 6.17-10.58.55z"/>
        </g>
        <g stroke="#000" class="edge">
            <path fill="none" d="M1172.3 111.02c-36.35 20.71-103.65 56.1-165.98 72.98-92.7 25.11-378.6 43.6-494.96 50.28"/>
            <path d="m511.68 237.76-10.18-2.92 9.79-4.06z"/>
        </g>
        <g stroke="#000" class="edge">
            <path fill="none" d="M1185.63 111.85c-19.18 23.19-53.59 63.09-70.31 72.15-67.51 36.56-155.26 48.56-217.26 52.18"/>
            <path d="m898.47 239.66-10.16-2.98 9.8-4.01z"/>
        </g>
        <g class="node" transform="translate(4 328)">
            <ellipse cx="1254.32" cy="-162" fill="none" stroke="#000" rx="91.27" ry="18"/>
            <text x="1254.32" y="-156.95" font-family="Times,serif" font-size="14" text-anchor="middle">:feature:login:domain</text>
        </g>
        <g stroke="#000" class="edge">
            <path fill="none" d="M1213.6 111.95c6.96 8.25 15.47 18.35 23.19 27.51"/>
            <path d="m1239.42 137.15 3.77 9.9-9.12-5.39z"/>
        </g>
        <g stroke="#000" class="edge">
            <path fill="none" d="M520.48 110.55c-14.19 9.1-30.32 21.87-40.16 37.45-11.42 18.08-16.07 41.92-17.92 60.38"/>
            <path d="m465.9 208.4-4.24 9.7-2.73-10.23z"/>
        </g>
        <g stroke="#000" class="edge">
            <path fill="none" d="M599.97 105.35c34.51 8.37 80.45 22.17 117.35 42.65 30.91 17.16 61.01 44.42 80.81 64.26"/>
            <path d="m800.4 209.58 4.5 9.59-9.5-4.7z"/>
        </g>
        <g class="node" transform="translate(4 328)">
            <ellipse cx="344.32" cy="-162" fill="none" stroke="#000" rx="85.13" ry="18"/>
            <text x="344.32" y="-156.95" font-family="Times,serif" font-size="14" text-anchor="middle">:feature:pos:domain</text>
        </g>
        <g stroke="red" stroke-width="2" class="edge">
            <path fill="none" d="M510.09 108.66c-30.83 10.74-74.08 25.8-108.11 37.65"/>
            <path fill="red" d="m404.73 149.06-10.59-.02 8.29-6.59z"/>
        </g>
        <g stroke="#000" class="edge">
            <path fill="none" d="M298.65 110.84c-17.1 8.25-34.55 20.24-44.33 37.16-8.01 13.85-9.99 23.5 0 36 45.22 56.61 89.4 15.87 159 36 2.41.7 4.89 1.45 7.37 2.24"/>
            <path d="m421.71 218.89 8.39 6.47-10.59.17z"/>
        </g>
        <g stroke="#000" class="edge">
            <path fill="none" d="M431.78 106.97c96.44 13.71 241.43 35.07 252.54 41.03 19.13 10.26 15.72 22.86 33 36 17.61 13.39 39.12 25 57.99 33.91"/>
            <path d="m776.77 214.73 7.63 7.35-10.55-.99z"/>
        </g>
        <g stroke="#000" class="edge">
            <path fill="none" d="M346.81 112.3c.21 7.29.46 15.97.69 24.16"/>
            <path d="m351 136.29-3.21 10.09-3.79-9.89z"/>
        </g>
        <g stroke="#000" class="edge">
            <path fill="none" d="M882.71 183.95c-10.12 8.74-22.64 19.56-33.73 29.15"/>
            <path d="m851.47 215.57-9.86 3.89 5.28-9.18z"/>
        </g>
        <g stroke="#000" class="edge">
            <path fill="none" d="M1189.42 178.18c-12.03 1.94-24.43 3.94-36.1 5.82-91.93 14.78-198.2 31.72-265.25 42.39"/>
            <path d="m888.76 229.82-10.43-1.88 9.33-5.03z"/>
        </g>
        <g stroke="#000" class="edge">
            <path fill="none" d="M374.81 183.41c16.25 10.07 37.17 23.02 54.36 33.68"/>
            <path d="m430.86 214.01 6.66 8.24-10.35-2.29z"/>
        </g>
        <g stroke="#000" class="edge">
            <path fill="none" d="M416.59 177.1c90.04 13.33 247.54 36.64 337.2 49.91"/>
            <path d="m754.04 223.5 9.38 4.93-10.41 2z"/>
        </g>
        <g class="node" transform="translate(4 328)">
            <ellipse cx="336.32" cy="-90" fill="none" stroke="#000" rx="63.63" ry="18"/>
            <text x="336.32" y="-84.95" font-family="Times,serif" font-size="14" text-anchor="middle">:core:database</text>
        </g>
        <g stroke="red" stroke-width="2" class="edge">
            <path fill="none" d="M346.34 184.3c-.83 7.29-1.82 15.97-2.76 24.16"/>
            <path fill="red" d="m347.23 207.35-4.61 9.54-2.34-10.33z"/>
        </g>
        <g class="node" transform="translate(4 328)">
            <ellipse cx="336.32" cy="-18" fill="none" stroke="#000" rx="55.45" ry="18"/>
            <text x="336.32" y="-12.95" font-family="Times,serif" font-size="14" text-anchor="middle">:core:model</text>
        </g>
        <g stroke="red" stroke-width="2" class="edge">
            <path fill="none" d="M340.32 256.3v24.16"/>
            <path fill="red" d="m343.82 278.87-3.5 10-3.5-10z"/>
        </g>
    </g>
</svg>
