<svg xmlns="http://www.w3.org/2000/svg" width="332pt" height="188pt" viewBox="0 0 332.43 188">
    <g class="graph">
        <path fill="#fff" d="M0 188V0h332.43v188z"/>
        <g class="node" transform="translate(4 184)">
            <ellipse cx="106.07" cy="-162" fill="none" stroke="#000" rx="74.38" ry="18"/>
            <text x="106.07" y="-156.95" font-family="Times,serif" font-size="14" text-anchor="middle">:feature:splash:ui</text>
        </g>
        <g class="node" transform="translate(4 184)">
            <ellipse cx="39.07" cy="-90" fill="none" stroke="#000" rx="39.07" ry="18"/>
            <text x="39.07" y="-84.95" font-family="Times,serif" font-size="14" text-anchor="middle">:core:ui</text>
        </g>
        <g stroke="#000" class="edge">
            <path fill="none" d="M93.85 39.95c-8.39 8.76-18.77 19.6-27.95 29.19"/>
            <path d="m68.71 71.27-9.44 4.81 4.38-9.65z"/>
        </g>
        <g class="node" transform="translate(4 184)">
            <ellipse cx="167.07" cy="-18" fill="none" stroke="#000" rx="65.17" ry="18"/>
            <text x="167.07" y="-12.95" font-family="Times,serif" font-size="14" text-anchor="middle">:core:common</text>
        </g>
        <g stroke="#000" class="edge">
            <path fill="none" d="M111.42 40.48c1.97 18.51 6.67 48.22 17.65 71.52 4.58 9.72 11.25 19.27 17.94 27.52"/>
            <path d="m149.63 137.21 3.84 9.87-9.16-5.33z"/>
        </g>
        <g class="node" transform="translate(4 184)">
            <ellipse cx="229.07" cy="-90" fill="none" stroke="#000" rx="95.37" ry="18"/>
            <text x="229.07" y="-84.95" font-family="Times,serif" font-size="14" text-anchor="middle">:feature:splash:domain</text>
        </g>
        <g stroke="red" stroke-width="2" class="edge">
            <path fill="none" d="M138.29 39.06c16.56 9.42 37.72 21.47 55.85 31.79"/>
            <path fill="red" d="m194.54 67.04 6.96 7.99-10.43-1.9z"/>
        </g>
        <g stroke="red" stroke-width="2" class="edge">
            <path fill="none" d="M218.06 111.95c-7.39 8.34-16.44 18.56-24.63 27.8"/>
            <path fill="red" d="m197.2 140.78-9.25 5.16 4.01-9.8z"/>
        </g>
    </g>
</svg>
