<svg xmlns="http://www.w3.org/2000/svg" width="380pt" height="260pt" viewBox="0 0 380.24 260">
    <g class="graph">
        <path fill="#fff" d="M0 260V0h380.24v260z"/>
        <g class="node" transform="translate(4 256)">
            <ellipse cx="160.07" cy="-234" fill="none" stroke="#000" rx="120.45" ry="18"/>
            <text x="160.07" y="-228.95" font-family="Times,serif" font-size="14" text-anchor="middle">:feature:transaction-history:ui</text>
        </g>
        <g class="node" transform="translate(4 256)">
            <ellipse cx="39.07" cy="-90" fill="none" stroke="#000" rx="39.07" ry="18"/>
            <text x="39.07" y="-84.95" font-family="Times,serif" font-size="14" text-anchor="middle">:core:ui</text>
        </g>
        <g stroke="#000" class="edge">
            <path fill="none" d="M120.28 39.13c-17.8 8.53-37.2 20.65-50.21 36.87-13.91 17.34-20.67 41.76-23.94 60.64"/>
            <path d="m49.62 136.96-4.93 9.38-2-10.41z"/>
        </g>
        <g class="node" transform="translate(4 256)">
            <ellipse cx="307.07" cy="-90" fill="none" stroke="#000" rx="65.17" ry="18"/>
            <text x="307.07" y="-84.95" font-family="Times,serif" font-size="14" text-anchor="middle">:core:common</text>
        </g>
        <g stroke="#000" class="edge">
            <path fill="none" d="M203.24 39.36C221.4 48.3 242.39 60.69 258.07 76c17.96 17.54 32.09 42.42 41.23 61.41"/>
            <path d="m302.46 135.9 1 10.54-7.36-7.61z"/>
        </g>
        <g class="node" transform="translate(4 256)">
            <ellipse cx="160.07" cy="-162" fill="none" stroke="#000" rx="85.13" ry="18"/>
            <text x="160.07" y="-156.95" font-family="Times,serif" font-size="14" text-anchor="middle">:feature:pos:domain</text>
        </g>
        <g stroke="red" stroke-width="2" class="edge">
            <path fill="none" d="M164.07 40.3v24.16"/>
            <path fill="red" d="m167.57 62.87-3.5 10-3.5-10z"/>
        </g>
        <g stroke="#000" class="edge">
            <path fill="none" d="M135.7 111.41c-17.68 10.23-40.52 23.44-59.1 34.19"/>
            <path d="m78.5 148.55-10.41 1.97 6.91-8.03z"/>
        </g>
        <g stroke="#000" class="edge">
            <path fill="none" d="M197.42 110.88c21.21 10.1 48.85 23.26 71.56 34.08"/>
            <path d="m270.46 141.79 7.53 7.46-10.53-1.14z"/>
        </g>
        <g class="node" transform="translate(4 256)">
            <ellipse cx="160.07" cy="-90" fill="none" stroke="#000" rx="63.63" ry="18"/>
            <text x="160.07" y="-84.95" font-family="Times,serif" font-size="14" text-anchor="middle">:core:database</text>
        </g>
        <g stroke="red" stroke-width="2" class="edge">
            <path fill="none" d="M164.07 112.3v24.16"/>
            <path fill="red" d="m167.57 134.87-3.5 10-3.5-10z"/>
        </g>
        <g class="node" transform="translate(4 256)">
            <ellipse cx="160.07" cy="-18" fill="none" stroke="#000" rx="55.45" ry="18"/>
            <text x="160.07" y="-12.95" font-family="Times,serif" font-size="14" text-anchor="middle">:core:model</text>
        </g>
        <g stroke="red" stroke-width="2" class="edge">
            <path fill="none" d="M164.07 184.3v24.16"/>
            <path fill="red" d="m167.57 206.87-3.5 10-3.5-10z"/>
        </g>
    </g>
</svg>
